<svg xmlns="http://www.w3.org/2000/svg" width="630.568" height="568.388" viewBox="0 0 630.568 568.388">
  <g id="Group_28" data-name="Group 28" transform="translate(-1060 -365.692)">
    <circle id="path4222" cx="271.975" cy="271.975" r="271.975" transform="translate(1142.619 369.692)" fill="#5aeaad"/>
    <rect id="rect6444-7" width="39.09" height="96.89" transform="translate(1204.514 529.389)" fill="#f49c9c"/>
    <rect id="rect6444-9-3" width="39.09" height="138.234" transform="translate(1260.601 488.045)" fill="#9ce5f4"/>
    <rect id="rect6444-9-1" width="39.09" height="87.203" transform="translate(1316.688 539.077)" fill="#faa3d3"/>
    <rect id="rect6444-7-2" width="39.09" height="165.935" transform="translate(1372.773 460.344)" fill="#f4e19c"/>
    <path id="path6442" d="M188.871,249.66h261.1" transform="translate(988.767 376.619)" fill="rgba(189,225,236,0.07)" stroke="#333" stroke-linecap="round" stroke-linejoin="round" stroke-width="8" fill-rule="evenodd"/>
    <g id="g6770" transform="matrix(-0.157, -0.988, 0.988, -0.157, 1466.585, 810.464)">
      <circle id="path6719" cx="89.734" cy="89.734" r="89.734" fill="#f4e19c"/>
      <path id="path6740" d="M54.94,0,0,70.949,81.728,108l4.727-61.084Z" transform="translate(89.735 18.785)" fill="#caddea" fill-rule="evenodd"/>
      <path id="path6742" d="M65.77,0,0,61.046,30.64,82.572,50.9,88.494l27.611.332L102.35,81.94,126.87,65.719l16.41-20.5,8.139-18.449Z" transform="translate(23.965 89.734)" fill="#f38888" fill-rule="evenodd"/>
      <path id="path6744" d="M87.436,20.178,0,0,6.544,59.02l15.123,22.2L32.742,91.316Z" transform="translate(2.298 69.557)" fill="#d7abb5" fill-rule="evenodd"/>
      <path id="path6723" d="M0,0V89.734L63.452,26.283,33.142,6.345Z" transform="translate(89.734)" fill="#eef6b2" fill-rule="evenodd"/>
      <circle id="path6719-3" cx="89.734" cy="89.734" r="89.734" fill="none" stroke="#333" stroke-linecap="round" stroke-linejoin="round" stroke-width="8"/>
      <path id="path6742-9" d="M85.65,26.765,0,0" transform="translate(89.734 89.734)" fill="none" stroke="#333" stroke-linecap="round" stroke-linejoin="round" stroke-width="8" fill-rule="evenodd"/>
      <path id="path6744-4" d="M32.742,91.317,87.436,20.178,0,0" transform="translate(2.298 69.557)" fill="none" stroke="#333" stroke-linecap="round" stroke-linejoin="round" stroke-width="8" fill-rule="evenodd"/>
      <path id="path6723-7" d="M0,0V89.734L63.452,26.283" transform="translate(89.734)" fill="none" stroke="#333" stroke-linecap="round" stroke-linejoin="round" stroke-width="8" fill-rule="evenodd"/>
    </g>
    <circle id="path6781" cx="83.945" cy="83.945" r="83.945" stroke-width="8" transform="translate(1457.2 623.828)" stroke="rgba(0,0,0,0.14)" stroke-linecap="round" stroke-linejoin="round" fill="none"/>
    <rect id="rect6444-7-3" width="39.09" height="96.89" transform="translate(1204.514 529.389)" fill="none" stroke="#333" stroke-linejoin="round" stroke-width="8"/>
    <rect id="rect6444-9-3-6" width="39.09" height="138.234" transform="translate(1260.601 488.045)" fill="none" stroke="#333" stroke-linejoin="round" stroke-width="8"/>
    <rect id="rect6444-9-1-1" width="39.09" height="87.203" transform="translate(1316.688 539.077)" fill="none" stroke="#333" stroke-linejoin="round" stroke-width="8"/>
    <rect id="rect6444-7-2-06" width="39.09" height="165.935" transform="translate(1372.773 460.344)" fill="none" stroke="#333" stroke-linejoin="round" stroke-width="8"/>
    <circle id="path4222-3" cx="271.975" cy="271.975" r="271.975" transform="translate(1142.619 369.692)" fill="none" stroke="#333" stroke-linejoin="round" stroke-width="8"/>
    <path id="path4222-0" d="M436.65,72.377c-150.21,0-271.978,121.769-271.976,271.978a271.975,271.975,0,0,0,84.621,196.7,271.975,271.975,0,0,1-73.042-185.125c0-150.21,121.769-271.978,271.978-271.976a271.975,271.975,0,0,1,187.348,75.267A271.975,271.975,0,0,0,436.65,72.377Z" transform="translate(977.943 297.315)" fill="rgba(0,0,0,0.09)" fill-rule="evenodd"/>
    <g id="g6650" transform="translate(1063 689.627)">
      <rect id="rect4224" width="340.385" height="236.376" stroke-width="6" transform="translate(24.836)" stroke="#333" stroke-linecap="round" stroke-linejoin="round" fill="#fff"/>
      <rect id="rect4224-3" width="292.816" height="190.138" stroke-width="6" fill="#9ed0f5" stroke="#333" transform="translate(48.62 23.12)"/>
      <rect id="rect4241" width="57.182" height="29.312" transform="translate(74.898 49.447)" fill="rgba(192,237,239,0.65)"/>
      <rect id="rect4241-5" width="57.182" height="29.312" transform="translate(140.764 49.447)" fill="rgba(247,249,218,0.65)"/>
      <rect id="rect4241-6" width="57.182" height="29.312" transform="translate(74.898 87.442)" fill="rgba(255,255,255,0.65)"/>
      <rect id="rect4241-5-2" width="57.182" height="29.312" transform="translate(140.764 87.442)" fill="rgba(192,237,239,0.65)"/>
      <rect id="rect4241-6-9" width="57.182" height="29.312" transform="translate(74.898 125.437)" fill="rgba(192,237,239,0.65)"/>
      <rect id="rect4241-5-2-1" width="57.182" height="29.312" transform="translate(140.764 125.437)" fill="rgba(255,255,255,0.65)"/>
      <rect id="rect4241-6-9-2" width="57.182" height="29.312" transform="translate(74.898 163.434)" fill="rgba(247,249,218,0.65)"/>
      <rect id="rect4241-5-2-1-7" width="57.182" height="29.312" transform="translate(140.764 163.434)" fill="rgba(247,249,218,0.65)"/>
      <path id="path4312" d="M350.417,921.678a41.283,41.283,0,1,1-12.849-29.93l-28.434,29.93Z" transform="translate(-38.904 -830.312)" fill="#9cebe0" stroke="#333" stroke-linecap="round" stroke-linejoin="round" stroke-width="4" fill-rule="evenodd"/>
      <path id="path4314" d="M261.407,944.444v49.964a1.448,1.448,0,0,0,1.447,1.447h87.812v-2.895H264.3V944.444Z" transform="translate(-41.785 -801.661)" fill="#ddeffc" fill-rule="evenodd"/>
      <path id="rect5364" d="M109.664,991.751c0,16.731,10.282,30.2,23.053,30.2h343.95c12.771,0,23.053-13.47,23.053-30.2Z" transform="translate(-109.664 -780.499)" fill="#fff" stroke="#333" stroke-width="6" fill-rule="evenodd"/>
      <rect id="rect5373" width="97.436" height="12.914" rx="4.461" transform="translate(146.31 208.605)" fill="#333"/>
    </g>
  </g>
</svg>
