<svg xmlns="http://www.w3.org/2000/svg" width="701.575" height="701.575" viewBox="0 0 701.575 701.575">
  <g id="Group_15" data-name="Group 15" transform="translate(-1178.805 -1231.879)">
    <g id="Group_13" data-name="Group 13" transform="translate(823.653 1202.372) rotate(-109)">
      <circle id="path4222" cx="271.975" cy="271.975" r="271.975" transform="translate(-861.381 271.692)" fill="#f38888"/>
      <circle id="path4222-3" cx="271.975" cy="271.975" r="271.975" transform="translate(-861.381 271.692)" fill="none" stroke="#333" stroke-linejoin="round" stroke-width="8"/>
      <path id="path4222-0" d="M436.65,72.377c-150.21,0-271.978,121.769-271.976,271.978a271.975,271.975,0,0,0,84.621,196.7,271.975,271.975,0,0,1-73.042-185.125c0-150.21,121.769-271.978,271.978-271.976a271.975,271.975,0,0,1,187.348,75.267A271.975,271.975,0,0,0,436.65,72.377Z" transform="translate(-1026.057 199.315)" fill="rgba(0,0,0,0.09)" fill-rule="evenodd"/>
    </g>
    <g id="Group_12" data-name="Group 12" transform="translate(1962 435)">
      <rect id="rect5391" width="356.148" height="245.62" rx="9.899" transform="translate(-487.864 907.477)" fill="#fff"/>
      <path id="path5410" d="M388.36,81.075l-.512-30.191,10.234-7.164,334.657-.512,10.746,4.605L744,81.587Z" transform="translate(-876.224 864.268)" fill="#d2d2d2" fill-rule="evenodd"/>
      <path id="path5393" d="M388.2,69.018H744.35" transform="translate(-876.066 875.813)" fill="#fff" stroke="#333" stroke-linecap="round" stroke-linejoin="round" stroke-width="6" fill-rule="evenodd"/>
      <rect id="rect5391-0" width="356.148" height="245.62" rx="9.899" stroke-width="6" fill="none" stroke="#333" transform="translate(-487.864 907.477)"/>
      <circle id="path5412" cx="9.211" cy="9.211" r="9.211" transform="translate(-160.211 916.66)" fill="#838383"/>
      <circle id="path5412-9" cx="9.211" cy="9.211" r="9.211" transform="translate(-183.698 916.66)" fill="#a6a6a6"/>
      <rect id="rect5435" width="330.562" height="180.121" rx="3.889" transform="translate(-475.073 959.159)" fill="rgba(186,212,219,0.42)"/>
    </g>
    <g id="Group_14" data-name="Group 14" transform="translate(0 28)">
      <path id="path5505" d="M700.36,94.625a2.9,2.9,0,0,0-2.2,1.052L658.269,142.6l-39.3-10.807a2.9,2.9,0,0,0-2.524.489l-41.073,31.381a2.9,2.9,0,0,0-.616.639L534.93,221.165,496.018,207.2l-41-17.848a2.9,2.9,0,0,0-3.036.455L410.9,224.947a2.9,2.9,0,0,0,3.763,4.4l39.705-33.967,39.423,17.162q.088.038.178.071l41.082,14.748a2.9,2.9,0,0,0,3.35-1.063l40.833-58.312,39.578-30.236,39.7,10.914a2.9,2.9,0,0,0,2.971-.916l41.082-48.322a2.9,2.9,0,0,0-2.207-4.8Z" transform="translate(1095.635 1296.267)" fill="#9ed0f5" fill-rule="evenodd"/>
      <path id="path6349" d="M623.261,97.141a8.14,8.14,0,1,1-8.14-8.14A8.14,8.14,0,0,1,623.261,97.141Z" transform="translate(1183.799 1293.751)" fill="#9ed0f5" fill-rule="evenodd"/>
      <path id="path6349-9" d="M592.186,132.486a8.14,8.14,0,1,1-8.14-8.14A8.14,8.14,0,0,1,592.186,132.486Z" transform="translate(1169.899 1309.562)" fill="#9ed0f5" fill-rule="evenodd"/>
      <path id="path6349-2" d="M564.179,125.363a8.14,8.14,0,1,1-8.14-8.14,8.14,8.14,0,0,1,8.14,8.14Z" transform="translate(1157.37 1306.376)" fill="#9ed0f5" fill-rule="evenodd"/>
      <path id="path6349-0" d="M536.3,146.559a8.14,8.14,0,1,1-8.14-8.14A8.14,8.14,0,0,1,536.3,146.559Z" transform="translate(1144.899 1315.857)" fill="#9ed0f5" fill-rule="evenodd"/>
      <path id="path6349-23" d="M508.049,186.559a8.14,8.14,0,1,1-8.14-8.14A8.14,8.14,0,0,1,508.049,186.559Z" transform="translate(1132.262 1333.751)" fill="#9ed0f5" fill-rule="evenodd"/>
      <path id="path6349-7" d="M477.549,176.309a8.14,8.14,0,1,1-8.14-8.14A8.14,8.14,0,0,1,477.549,176.309Z" transform="translate(1118.618 1329.166)" fill="#9ed0f5" fill-rule="evenodd"/>
      <path id="path6349-5" d="M451.3,165.059a8.14,8.14,0,1,1-8.14-8.14A8.14,8.14,0,0,1,451.3,165.059Z" transform="translate(1106.876 1324.133)" fill="#9ed0f5" fill-rule="evenodd"/>
      <path id="path6349-92" d="M422.8,189.059a8.14,8.14,0,1,1-8.14-8.14A8.14,8.14,0,0,1,422.8,189.059Z" transform="translate(1094.127 1334.869)" fill="#9ed0f5" fill-rule="evenodd"/>
    </g>
  </g>
</svg>
